<svg width="640" height="479.99999999999994" xmlns="http://www.w3.org/2000/svg" xmlns:svg="http://www.w3.org/2000/svg">
 <!-- Created with SVG-edit - http://svg-edit.googlecode.com/ -->

 <g>
  <title>Layer 1</title>
  <polygon strokeWidth="5" strokecolor="#000000" fill="#FF0000" edge="0" orient="x" sides="4" shape="regularPoly" id="svg_6" cy="180" cx="230"/>
  <polygon strokeWidth="5" strokecolor="none" fill="#FF0000" edge="0" orient="x" sides="4" shape="regularPoly" id="svg_10" cy="80" cx="95"/>
  <polygon strokeWidth="5" strokecolor="none" fill="#FF0000" edge="0" orient="x" sides="4" shape="regularPoly" id="svg_11" cy="80" cx="95"/>
  <polygon strokeWidth="5" strokecolor="none" fill="#FF0000" edge="0" orient="x" sides="4" shape="regularPoly" id="svg_12" cy="80" cx="95"/>
  <rect stroke="#000000" id="svg_2" height="144.080768" width="436.677206" y="303.644745" x="89.932874" stroke-linecap="null" stroke-linejoin="null" stroke-dasharray="null" fill="#ffc938"/>
  <path stroke="#000000" id="svg_14" d="m90.355459,303.559393c27.632288,-28.212655 55.264575,-56.425325 82.896863,-84.63798l270.907503,1.500584l81.647132,83.137396l-435.451498,0z" stroke-linecap="null" stroke-linejoin="null" stroke-dasharray="null" fill="#ffc938"/>
  <polygon stroke="#000000" stroke-width="5" points="28.21193218231201,69.6627025604248 28.21193218231201,69.6627025604248 28.21193218231201,69.6627025604248 28.21193218231201,69.6627025604248 28.21193218231201,69.6627025604248 28.21193218231201,69.6627025604248 " strokeWidth="5" strokecolor="#000000" fill="#FF0000" edge="0" orient="x" sides="5" shape="regularPoly" id="svg_3" cy="141" cx="160"/>
  <polygon stroke-width="5" points="321.974648475647,2.256175994873047 321.2838830947876,2.9469547271728516 320.5930871963501,2.256175994873047 321.2838830947876,1.565399169921875 321.974648475647,2.256175994873047 " strokeWidth="5" strokecolor="none" fill="#FF0000" edge="0.666667" orient="x" sides="4" shape="regularPoly" id="svg_7" cy="95" cx="360"/>
  <rect stroke="#000000" id="svg_16" height="218.33859" width="337.032723" y="35.43805" x="140.382374" stroke-linecap="null" stroke-linejoin="null" stroke-dasharray="null" fill="#ffc938"/>
  <text stroke="#000000" transform="matrix(3.2807759013715816,0,0,3.2807759013715816,-503.2921106401421,-560.173180754646) " font-weight="bold" xml:space="preserve" text-anchor="middle" font-family="Sans-serif" font-size="24" id="svg_20" y="294.57562" x="246.717965" stroke-linecap="null" stroke-linejoin="null" stroke-dasharray="null" stroke-width="0" fill="#000000">Reminders</text>
  <text stroke="#000000" transform="matrix(6.73175758464742,0,0,6.73175758464742,-1654.3924565447296,-360.6673551865895) " font-weight="bold" xml:space="preserve" text-anchor="middle" font-family="Sans-serif" font-size="24" id="svg_22" y="83.118017" x="291.541621" stroke-linecap="null" stroke-linejoin="null" stroke-dasharray="null" stroke-width="0" fill="#000000">My</text>
 </g>
</svg>